<svg width="64" height="64" viewBox="0 0 64 64" fill="none" xmlns="http://www.w3.org/2000/svg">
  <!-- Background circle -->
  <circle cx="32" cy="32" r="30" fill="#2d5016" stroke="#1a3009" stroke-width="2"/>
  
  <!-- Stylized "IR" letters -->
  <g fill="#ffffff">
    <!-- Letter "I" -->
    <rect x="18" y="20" width="4" height="24" rx="2"/>
    <rect x="16" y="20" width="8" height="4" rx="2"/>
    <rect x="16" y="40" width="8" height="4" rx="2"/>
    
    <!-- Letter "R" -->
    <rect x="30" y="20" width="4" height="24" rx="2"/>
    <path d="M34 20 Q42 20 42 28 Q42 32 38 32 L42 44 L38 44 L35 32 L34 32 Z" fill="#ffffff"/>
    <rect x="34" y="24" width="6" height="4" rx="2"/>
  </g>
  
  <!-- Green innovation accent - small leaf/growth symbol -->
  <g fill="#7cb342" opacity="0.9">
    <path d="M46 16 Q50 12 54 16 Q50 20 46 16 Z"/>
    <path d="M48 18 Q48 22 50 24"/>
  </g>
</svg>